<svg xmlns="http://www.w3.org/2000/svg" version="1" x="0" y="0" width="254" height="246" viewBox="0" enable-background="new 0 0 254 246" xml:space="preserve"><g transform="translate(0.000000,246.000000) scale(0.100000,-0.100000)"><path fill="#084887" d="M925 2414C729 2360 531 2242 375 2085c-175-175-293-398-342-642C10 1323 10 1085 34 975 100 671 250 422 478 239c90-73 81-84 117 144 9 55 36 50 74-15C788 163 982 47 1210 46c310-3 529 217 530 530 0 140-54 250-167 337 -87 67-175 112-372 191C985 1191 878 1253 780 1346 642 1478 599 1582 597 1790c-3 293 117 486 378 611C1067 2445 1053 2449 925 2414z"/><path fill="#50B0D1" d="M1169 2327c-121-44-200-113-250-222 -55-118-62-253-17-372 16-45 38-74 97-133 108-107 165-137 509-274 168-66 255-119 348-211C1973 999 2019 885 2020 714c0-274-130-527-340-663C1645 28 1619 10 1621 10c3 0 40 14 84 31 599 230 930 868 769 1486 -76 292-261 553-511 721 -36 24-64 38-68 32 -12-20-54-150-65-204 -10-48-15-56-34-56 -19 0-30 16-65 84 -47 97-112 162-208 211C1470 2342 1455 2345 1350 2348 1249 2350 1227 2348 1169 2327z"/></g></svg>