<svg xmlns:svg="http://www.w3.org/2000/svg" xmlns="http://www.w3.org/2000/svg" version="1" width="710" height="340"><style>.s0{fill:#6e6e6e;}</style><g transform="matrix(1.0920568,0,0,1.0920568,-34.26345,-566.11742)"><path d="m222 740c-4 46-43 82-90 81-47 0-85-38-86-85-2-47 33-87 80-91 47-4 89 30 95 76" fill="#fc0300"/><path d="m103 820c-26-9-46-24-56-44-6-12-7-17-6-34 1-17 2-22 9-31 14-18 35-24 63-18 13 2 18 5 29 16 15 15 19 26 16 41-3 17-24 30-40 26-10-3-25-18-22-22 3-2 5-2 10 2 9 6 16 5 25-4 10-9 11-21 4-34-6-11-18-17-35-17-25 0-40 18-40 48 0 22 9 38 28 50 17 12 32 16 54 14 30-2 52-16 67-42 7-13 8-18 8-36 0-17-1-23-7-32-9-15-18-21-68-39C91 646 82 641 71 627 61 615 57 590 63 573c5-14 18-30 34-39 11-7 16-8 33-8 10 0 29 3 40 6 33 8 51 6 60-7 1-1 3-1 4 1 3 5-9 16-25 24-17 9-31 9-67-1-35-10-42-11-52-3-23 18-20 55 5 70 5 3 29 12 53 20 58 19 76 30 85 54 19 45-7 102-57 125-14 6-60 9-73 5zm410-55c-1-3-1-11 0-19 0-8 0-14 0-14-1 0-7 5-15 11-24 20-45 26-55 15-13-14 2-38 36-59 14-9 20-11 32-11l15 0 3-12c4-17 16-37 21-37 7 0 6 11-5 38-6 15-11 31-12 36-1 5-3 19-6 32-5 21-10 29-14 20zm-35-20c19-11 29-20 34-29 6-9 5-15-1-15-8 0-38 17-46 26-18 20-9 32 13 18zm-103 16c-7-2 4-49 16-70 8-13 14-15 20-6 4 6 4 8-2 15-3 4-7 8-7 9-1 2-1 1-2 3 0 1 0 1-1 2 0 2-1 2-1 4 0 1-2 3-3 6-2 6-7 23-8 26 0 5-5 13-7 13-1 0-4-1-5-2zm200-8c5-30 55-71 71-58 2 2 4 8 4 13 0 9-1 10-7 10-4 0-7-1-8-3-4-6-13-2-28 11-12 12-14 14-10 16 4 1 9-1 16-5 14-9 23-10 28-2 2 3 10 8 19 13 16 8 20 15 8 15-8 0-16-4-27-13-5-4-11-7-15-7-4 0-10 3-14 7-12 10-20 13-30 13-9 0-9 0-7-10zm-313-2c-9-8-8-14 4-34 9-14 31-29 48-32 7-1 11 0 15 4 4 4 8 6 10 6 7 0 10 14 5 25-14 29-63 48-82 31zm45-11c22-11 29-22 22-33-4-6-27-2-38 6-10 8-20 26-18 30 3 5 21 3 34-3zm115-91c-3-8-1-13 5-13 7 0 11 7 9 15-2 7-10 6-14-2z" fill="#1900dc"/><path d="m531 814c-1-5 0-11 1-16 2-3 3-7 6-10 0-1 2-2 3 0 1 1 1 2 0 3-1 1-2 3-3 4-2 5-3 10-3 15 0 2 0-1 0 4-1 0-3 1-4 0zm-11-16c-3 0-5 1-7 3-2 8-4 16-5 24l0 0 1 0c3 3 4-1 4-4 1-3 0-8 4-8 3-1 6-1 9-3 1-2 3-5 2-8-2-3-5-3-8-4zm2 5c4 0 2 4 0 5-2 2-5 5-7 2-1-3 2-5 4-7 1 0 2 0 3 0zm-15 6c1 1 1 3 0 4 0 1-2 1-3 0-1 0-1-2-1-3 1-1 3-1 4-1l-2 2 2-2z" fill="#6e6e6e"/></g></svg>
